# xmcd
#
# Track frame offsets: 
#        150
#        12815
#        24850
#        37315
#        50970
#        62282
#        75107
#        87512
#        100550
#        112607
#        125437
#        136350
#        148312
#        160565
#        173212
#        186575
#        198530
#        217207
#
# Disc length: 3054 seconds
#
# Revision: 3
# Processed by: cddbd v1.5.2PL0 Copyright (c) Steve Scherf et al.
# Submitted via: ExactAudioCopy v0.95b4
#
DISCID=f50bec12
DTITLE=Various Artist - The Best of Duke-Peacock Blues
DYEAR=1992
DGENRE=Blues
TTITLE0=Gatemouth Brown - My Time Is Expensive
TTITLE1=Elmore Nixon - A Hepcat's Advice
TTITLE2=Big Mama Thornton - Let Your Tears Fall Baby
TTITLE3=Earl Forest - Whoopin' And Hollerin'
TTITLE4=Johnny Ace - How Can You Be So Mean
TTITLE5=Roscoe Gordon - Keep On Doggin'
TTITLE6=Andrew Tibbs - Rock Savoy Rock
TTITLE7=Sonny Parker - She Set my Soul on fire
TTITLE8=Memphis Slim - Living Like A King
TTITLE9=Little Richard - Little Richard's Boogie
TTITLE10=Peter "Guitar" Lewis - Goin' Crazy
TTITLE11=Junior Parker - Drivin' Wheel
TTITLE12=Larry Davis - Texas Flood
TTITLE13=Fenton Robinson - Mississippi Steamboat
TTITLE14=James Davis - Blue Monday
TTITLE15=Otis Rush - Homework
TTITLE16=Bobby Blue Bland - Stormy Monday
TTITLE17=Bobby Blue Bland - Turn On Your Lovelight
EXTD=
EXTT0=
EXTT1=
EXTT2=
EXTT3=
EXTT4=
EXTT5=
EXTT6=
EXTT7=
EXTT8=
EXTT9=
EXTT10=
EXTT11=
EXTT12=
EXTT13=
EXTT14=
EXTT15=
EXTT16=
EXTT17=
PLAYORDER=
